<?xml version="1.0" encoding="utf-8"?>
<!-- Generator: Adobe Illustrator 19.0.0, SVG Export Plug-In . SVG Version: 6.00 Build 0)  -->
<svg version="1.0" xmlns="http://www.w3.org/2000/svg" xmlns:xlink="http://www.w3.org/1999/xlink" x="0px" y="0px"
	 viewBox="0 0 440 440" enable-background="new 0 0 440 440" xml:space="preserve">
<g id="reciepts">
	<g id="black_8_">
		<g>
			<path fill="#FFFFFF" d="M40,371c-5.5,0-10-4.5-10-10V180c0-5.5,4.5-10,10-10h281c5.5,0,10,4.5,10,10v181c0,5.5-4.5,10-10,10H40z"
				/>
			<path d="M321,180v181H40V180H321 M321,160H40c-11,0-20,9-20,20v181c0,11,9,20,20,20h281c11,0,20-9,20-20V180
				C341,169,332,160,321,160L321,160z"/>
		</g>
		
			<line fill="none" stroke="#000000" stroke-width="20" stroke-linecap="round" stroke-linejoin="round" stroke-miterlimit="10" x1="70" y1="319" x2="109" y2="319"/>
		
			<line fill="none" stroke="#000000" stroke-width="20" stroke-linecap="round" stroke-linejoin="round" stroke-miterlimit="10" x1="140" y1="319" x2="179" y2="319"/>
		
			<line fill="none" stroke="#000000" stroke-width="20" stroke-linecap="round" stroke-linejoin="round" stroke-miterlimit="10" x1="210" y1="319" x2="249" y2="319"/>
		<g>
			<path fill="#FFFFFF" d="M387.1,392.9c-2-2-4.5-2.9-7.1-2.9s-5.1,1-7.1,2.9L360,405.9l-12.9-12.9c-2-2-4.5-2.9-7.1-2.9
				s-5.1,1-7.1,2.9L320,405.9l-12.9-12.9c-2-2-4.5-2.9-7.1-2.9s-5.1,1-7.1,2.9L280,405.9l-12.9-12.9c-2-2-4.5-2.9-7.1-2.9
				s-5.1,1-7.1,2.9L240,405.9l-10-10V44.2l3,2.9c1.9,1.9,4.5,2.9,7,2.9c2.6,0,5.1-1,7.1-2.9L260,34.1l12.9,12.9c2,2,4.5,2.9,7.1,2.9
				s5.1-1,7.1-2.9L300,34.2l13.1,13c1.9,1.9,4.4,2.8,7.1,2.8c0,0,0,0,0,0c2.7,0,5.2-1,7.1-2.9l12.8-13L352.9,47c2,2,4.5,2.9,7.1,2.9
				s5.1-1,7.1-2.9L380,34.1l12.9,12.9c2,2,4.5,2.9,7.1,2.9s5.1-1,7.1-2.9l2.9-2.9v351.7l-10,10L387.1,392.9z"/>
			<path d="M380,48.3l5.9,5.9c3.9,3.9,9,5.9,14.1,5.9v331.7l-5.9-5.9c-3.9-3.9-9-5.9-14.1-5.9s-10.2,2-14.1,5.9l-5.9,5.9l-5.9-5.9
				c-3.9-3.9-9-5.9-14.1-5.9s-10.2,2-14.1,5.9l-5.9,5.9l-5.9-5.9c-3.9-3.9-9-5.9-14.1-5.9s-10.2,2-14.1,5.9l-5.9,5.9l-5.9-5.9
				c-3.9-3.9-9-5.9-14.1-5.9s-10.2,2-14.1,5.9l-5.9,5.9V60c5.1,0,10.2-2,14.1-5.9l5.9-5.9l5.9,5.9c3.9,3.9,9,5.9,14.1,5.9
				s10.2-2,14.1-5.9l5.8-5.8l6,5.9c3.8,3.8,8.9,5.8,14.2,5.8c0,0,0,0,0.1,0c5.3,0,10.5-2,14.2-5.9l5.7-5.8l5.7,5.8
				c3.9,3.9,9,5.9,14.1,5.9s10.2-1.9,14.1-5.9L380,48.3 M420,20l-20,20l-20-20l-20,20l-20-20l-19.9,20.2L300,20l-20,20l-20-20
				l-20,20l-20-19.8V400l20,20l20-20l20,20l20-20l20,20l20-20l20,20l20-20l20,20l20-20V20L420,20z"/>
		</g>
		<g>
			<path fill="#FFFFFF" d="M79.5,255C71,255,64,248,64,239.5S71,224,79.5,224S95,231,95,239.5S88,255,79.5,255z"/>
			<path d="M79.5,229c5.8,0,10.5,4.7,10.5,10.5S85.3,250,79.5,250S69,245.3,69,239.5S73.7,229,79.5,229 M79.5,219
				c-11.3,0-20.5,9.2-20.5,20.5S68.2,260,79.5,260s20.5-9.2,20.5-20.5S90.8,219,79.5,219L79.5,219z"/>
		</g>
		<g>
			<path fill="#FFFFFF" d="M100,255c-8.5,0-15.5-7-15.5-15.5s7-15.5,15.5-15.5s15.5,7,15.5,15.5S108.5,255,100,255z"/>
			<path d="M100,229c5.8,0,10.5,4.7,10.5,10.5S105.8,250,100,250s-10.5-4.7-10.5-10.5S94.2,229,100,229 M100,219
				c-11.3,0-20.5,9.2-20.5,20.5S88.7,260,100,260s20.5-9.2,20.5-20.5S111.3,219,100,219L100,219z"/>
		</g>
		
			<line fill="none" stroke="#000000" stroke-width="10" stroke-linecap="square" stroke-linejoin="round" stroke-miterlimit="10" x1="260" y1="80" x2="380" y2="80"/>
		
			<line fill="none" stroke="#000000" stroke-width="10" stroke-linecap="square" stroke-linejoin="round" stroke-miterlimit="10" x1="260" y1="120" x2="380" y2="120"/>
		
			<line fill="none" stroke="#000000" stroke-width="10" stroke-linecap="square" stroke-linejoin="round" stroke-miterlimit="10" x1="260" y1="160" x2="380" y2="160"/>
		
			<line fill="none" stroke="#000000" stroke-width="10" stroke-linecap="square" stroke-linejoin="round" stroke-miterlimit="10" x1="260" y1="200" x2="380" y2="200"/>
		
			<line fill="none" stroke="#000000" stroke-width="10" stroke-linecap="square" stroke-linejoin="round" stroke-miterlimit="10" x1="260" y1="240" x2="380" y2="240"/>
		
			<line fill="none" stroke="#000000" stroke-width="10" stroke-linecap="square" stroke-linejoin="round" stroke-miterlimit="10" x1="260" y1="280" x2="380" y2="280"/>
		
			<line fill="none" stroke="#000000" stroke-width="10" stroke-linecap="square" stroke-linejoin="round" stroke-miterlimit="10" x1="260" y1="320" x2="380" y2="320"/>
		
			<line fill="none" stroke="#000000" stroke-width="10" stroke-linecap="square" stroke-linejoin="round" stroke-miterlimit="10" x1="260" y1="360" x2="380" y2="360"/>
	</g>
</g>
<g id="guides" display="none">
	<g display="inline">
		<g>
			<defs>
				<rect id="SVGID_1_" width="440" height="440"/>
			</defs>
			<clipPath id="SVGID_2_">
				<use xlink:href="#SVGID_1_"  overflow="visible"/>
			</clipPath>
			
				<rect x="20.5" y="20.5" clip-path="url(#SVGID_2_)" fill="none" stroke="#FF0000" stroke-linecap="square" stroke-linejoin="round" stroke-miterlimit="10" stroke-dasharray="12,12" width="400" height="400"/>
			<g clip-path="url(#SVGID_2_)">
				<defs>
					<rect id="SVGID_3_" width="440" height="440"/>
				</defs>
				<clipPath id="SVGID_4_">
					<use xlink:href="#SVGID_3_"  overflow="visible"/>
				</clipPath>
				
					<path clip-path="url(#SVGID_4_)" fill="none" stroke="#00FF00" stroke-linecap="square" stroke-linejoin="round" stroke-miterlimit="10" stroke-dasharray="12,12" d="
					M419.8,219.5c0-110.5-89.5-200-200-200s-200,89.5-200,200s89.5,200,200,200S419.8,330,419.8,219.5z"/>
				
					<path clip-path="url(#SVGID_4_)" fill="none" stroke="#00FF00" stroke-linecap="square" stroke-linejoin="round" stroke-miterlimit="10" stroke-dasharray="12,12" d="
					M219.8,379.5c-88.4,0-160-71.6-160-160s71.6-160,160-160c88.4,0,160,71.6,160,160S308.3,379.5,219.8,379.5z"/>
				
					<path clip-path="url(#SVGID_4_)" fill="none" stroke="#00FF00" stroke-linecap="square" stroke-linejoin="round" stroke-miterlimit="10" stroke-dasharray="12,12" d="
					M339.8,219.5c0-66.3-53.7-120-120-120s-120,53.7-120,120s53.7,120,120,120S339.8,285.8,339.8,219.5z"/>
				
					<path clip-path="url(#SVGID_4_)" fill="none" stroke="#00FF00" stroke-linecap="square" stroke-linejoin="round" stroke-miterlimit="10" stroke-dasharray="12,12" d="
					M219.8,299.5c-44.2,0-80-35.8-80-80s35.8-80,80-80s80,35.8,80,80S264,299.5,219.8,299.5z"/>
				
					<path clip-path="url(#SVGID_4_)" fill="none" stroke="#00FF00" stroke-linecap="square" stroke-linejoin="round" stroke-miterlimit="10" stroke-dasharray="12,12" d="
					M259.8,219.5c0-22.1-17.9-40-40-40s-40,17.9-40,40s17.9,40,40,40S259.8,241.6,259.8,219.5z"/>
				
					<line clip-path="url(#SVGID_4_)" fill="none" stroke="#FF0000" stroke-linecap="square" stroke-linejoin="round" stroke-miterlimit="10" stroke-dasharray="12,12" x1="219.5" y1="220" x2="219.5" y2="420"/>
				
					<line clip-path="url(#SVGID_4_)" fill="none" stroke="#FF0000" stroke-linecap="square" stroke-linejoin="round" stroke-miterlimit="10" stroke-dasharray="12,12" x1="220" y1="220.5" x2="420" y2="220.5"/>
				
					<line clip-path="url(#SVGID_4_)" fill="none" stroke="#FF0000" stroke-linecap="square" stroke-linejoin="round" stroke-miterlimit="10" stroke-dasharray="12,12" x1="219.5" y1="220" x2="219.5" y2="20"/>
				
					<line clip-path="url(#SVGID_4_)" fill="none" stroke="#FF0000" stroke-linecap="square" stroke-linejoin="round" stroke-miterlimit="10" stroke-dasharray="12,12" x1="220" y1="220.5" x2="20" y2="220.5"/>
			</g>
			
				<line clip-path="url(#SVGID_2_)" fill="none" stroke="#0000FF" stroke-width="0.5" stroke-linecap="square" stroke-linejoin="round" stroke-miterlimit="10" stroke-dasharray="4,7" x1="20" y1="220" x2="220" y2="20"/>
			
				<line clip-path="url(#SVGID_2_)" fill="none" stroke="#0000FF" stroke-width="0.5" stroke-linecap="square" stroke-linejoin="round" stroke-miterlimit="10" stroke-dasharray="4,7" x1="220" y1="20" x2="420" y2="220"/>
			
				<line clip-path="url(#SVGID_2_)" fill="none" stroke="#00FF00" stroke-linecap="square" stroke-linejoin="round" stroke-miterlimit="10" stroke-dasharray="12,12" x1="223.5" y1="22" x2="223.5" y2="22"/>
			
				<line clip-path="url(#SVGID_2_)" fill="none" stroke="#0000FF" stroke-width="0.5" stroke-linecap="square" stroke-linejoin="round" stroke-miterlimit="10" stroke-dasharray="4,7" x1="420" y1="220" x2="220" y2="420"/>
			
				<line clip-path="url(#SVGID_2_)" fill="none" stroke="#0000FF" stroke-width="0.5" stroke-linecap="square" stroke-linejoin="round" stroke-miterlimit="10" stroke-dasharray="4,7" x1="20" y1="220" x2="220" y2="420"/>
			
				<line clip-path="url(#SVGID_2_)" fill="none" stroke="#F15A24" stroke-width="0.5" stroke-linecap="square" stroke-linejoin="round" stroke-miterlimit="10" stroke-dasharray="12,12" x1="420" y1="220" x2="320" y2="420"/>
			
				<line clip-path="url(#SVGID_2_)" fill="none" stroke="#F15A24" stroke-width="0.5" stroke-linecap="square" stroke-linejoin="round" stroke-miterlimit="10" stroke-dasharray="12,12" x1="20" y1="220" x2="120" y2="420"/>
			
				<line clip-path="url(#SVGID_2_)" fill="none" stroke="#F15A24" stroke-width="0.5" stroke-linecap="square" stroke-linejoin="round" stroke-miterlimit="10" stroke-dasharray="12,12" x1="20" y1="220" x2="120" y2="20"/>
			
				<line clip-path="url(#SVGID_2_)" fill="none" stroke="#F15A24" stroke-width="0.5" stroke-linecap="square" stroke-linejoin="round" stroke-miterlimit="10" stroke-dasharray="12,12" x1="420" y1="220" x2="320" y2="20"/>
			
				<line clip-path="url(#SVGID_2_)" fill="none" stroke="#662D91" stroke-miterlimit="10" stroke-dasharray="3,9" x1="220" y1="20" x2="420" y2="420"/>
			
				<line clip-path="url(#SVGID_2_)" fill="none" stroke="#662D91" stroke-miterlimit="10" stroke-dasharray="3,9" x1="220" y1="20" x2="20" y2="420"/>
			
				<line clip-path="url(#SVGID_2_)" fill="none" stroke="#662D91" stroke-miterlimit="10" stroke-dasharray="3,9" x1="220" y1="420" x2="20" y2="20"/>
			
				<line clip-path="url(#SVGID_2_)" fill="none" stroke="#662D91" stroke-miterlimit="10" stroke-dasharray="3,9" x1="220" y1="420" x2="420" y2="20"/>
			<g clip-path="url(#SVGID_2_)">
				<defs>
					<rect id="SVGID_5_" x="10" y="10" width="420" height="420"/>
				</defs>
				<clipPath id="SVGID_6_">
					<use xlink:href="#SVGID_5_"  overflow="visible"/>
				</clipPath>
				
					<line clip-path="url(#SVGID_6_)" fill="none" stroke="#999999" stroke-width="0.5" stroke-miterlimit="10" stroke-dasharray="1,3" x1="316.6" y1="-131.2" x2="-131.2" y2="316.6"/>
				
					<line clip-path="url(#SVGID_6_)" fill="none" stroke="#999999" stroke-width="0.5" stroke-miterlimit="10" stroke-dasharray="1,3" x1="373.2" y1="-74.6" x2="-74.6" y2="373.2"/>
				
					<line clip-path="url(#SVGID_6_)" fill="none" stroke="#999999" stroke-width="0.5" stroke-miterlimit="10" stroke-dasharray="1,3" x1="401.5" y1="-46.3" x2="-46.3" y2="401.5"/>
				
					<line clip-path="url(#SVGID_6_)" fill="none" stroke="#999999" stroke-width="0.5" stroke-miterlimit="10" stroke-dasharray="1,3" x1="429.8" y1="-18.1" x2="-18.1" y2="429.8"/>
				
					<line clip-path="url(#SVGID_6_)" fill="none" stroke="#999999" stroke-width="0.5" stroke-miterlimit="10" stroke-dasharray="1,3" x1="458.1" y1="10.2" x2="10.2" y2="458.1"/>
				
					<line clip-path="url(#SVGID_6_)" fill="none" stroke="#999999" stroke-width="0.5" stroke-miterlimit="10" stroke-dasharray="1,3" x1="486.3" y1="38.5" x2="38.5" y2="486.3"/>
				
					<line clip-path="url(#SVGID_6_)" fill="none" stroke="#999999" stroke-width="0.5" stroke-miterlimit="10" stroke-dasharray="1,3" x1="514.6" y1="66.8" x2="66.8" y2="514.6"/>
				
					<line clip-path="url(#SVGID_6_)" fill="none" stroke="#662D91" stroke-width="0.5" stroke-miterlimit="10" stroke-dasharray="1,3" x1="571.2" y1="123.4" x2="123.4" y2="571.2"/>
				
					<line clip-path="url(#SVGID_6_)" fill="none" stroke="#999999" stroke-width="0.5" stroke-miterlimit="10" stroke-dasharray="1,3" x1="560.5" y1="305.9" x2="133" y2="-121.6"/>
				
					<line clip-path="url(#SVGID_6_)" fill="none" stroke="#999999" stroke-width="0.5" stroke-miterlimit="10" stroke-dasharray="1,3" x1="503.9" y1="362.5" x2="76.4" y2="-65"/>
				
					<line clip-path="url(#SVGID_6_)" fill="none" stroke="#999999" stroke-width="0.5" stroke-miterlimit="10" stroke-dasharray="1,3" x1="475.6" y1="390.8" x2="48.2" y2="-36.7"/>
				
					<line clip-path="url(#SVGID_6_)" fill="none" stroke="#999999" stroke-width="0.5" stroke-miterlimit="10" stroke-dasharray="1,3" x1="447.3" y1="419.1" x2="19.9" y2="-8.4"/>
				
					<line clip-path="url(#SVGID_6_)" fill="none" stroke="#999999" stroke-width="0.5" stroke-miterlimit="10" stroke-dasharray="1,3" x1="420.1" y1="448.4" x2="-7.3" y2="20.9"/>
				
					<line clip-path="url(#SVGID_6_)" fill="none" stroke="#999999" stroke-width="0.5" stroke-miterlimit="10" stroke-dasharray="1,3" x1="391.8" y1="476.7" x2="-35.6" y2="49.2"/>
				
					<line clip-path="url(#SVGID_6_)" fill="none" stroke="#999999" stroke-width="0.5" stroke-miterlimit="10" stroke-dasharray="1,3" x1="363.6" y1="505" x2="-63.9" y2="77.5"/>
				
					<line clip-path="url(#SVGID_6_)" fill="none" stroke="#662D91" stroke-width="0.5" stroke-miterlimit="10" stroke-dasharray="1,3" x1="307" y1="561.6" x2="-120.5" y2="134.1"/>
			</g>
		</g>
	</g>
</g>
</svg>
